<svg xmlns="http://www.w3.org/2000/svg" width="274.944" height="155.465" viewBox="0 0 274.944 155.465">
  <g id="Categories_Empty_" data-name="Categories (Empty)" transform="translate(-60.987 -323.042)">
    <g id="Сгруппировать_3245" data-name="Сгруппировать 3245" transform="translate(65.452 323) rotate(4)">
      <g id="Background" transform="translate(0 0.042)" fill="#1f1f1f" stroke="#3d3d3d" stroke-width="1">
        <rect width="271.131" height="63.961" rx="12" stroke="none"/>
        <rect x="0.5" y="0.5" width="270.131" height="62.961" rx="11.5" fill="none"/>
      </g>
      <g id="Category_Setting" data-name="Category Setting" transform="translate(13.025 13.748)">
        <text id="Restoraunt" transform="translate(71.214 21.42)" fill="#3d3d3d" font-size="11" font-family="Rubik-Regular, Rubik"><tspan x="0" y="0">Restoraunt</tspan></text>
        <g id="Icon" transform="translate(25.777)">
          <ellipse id="Bakcground" cx="18.273" cy="18.275" rx="18.273" ry="18.275" transform="translate(0)" fill="#3d3d3d"/>
        </g>
        <g id="Сгруппировать_2678" data-name="Сгруппировать 2678" transform="translate(0 10.757)">
          <path id="Контур_938" data-name="Контур 938" d="M0,0H14.892V14.892H0Z" fill="none"/>
          <path id="Контур_939" data-name="Контур 939" d="M12.308,12.687v1.241H4.862V12.687Zm1.862-4.344V9.585H3V8.344ZM12.308,4V5.241H4.862V4Z" transform="translate(-1.138 -1.518)" fill="#3d3d3d"/>
        </g>
        <g id="Сгруппировать_2717" data-name="Сгруппировать 2717" transform="translate(228.347 10.759)">
          <path id="Контур_946" data-name="Контур 946" d="M0,0H16.547V16.547H0Z" fill="none"/>
          <path id="Контур_947" data-name="Контур 947" d="M9.247,8.444l2.808-2.808.8.8L10.049,9.247l2.808,2.808-.8.8L9.247,10.049,6.438,12.857l-.8-.8L8.444,9.247,5.636,6.438l.8-.8Z" transform="translate(-0.973 -0.973)" fill="#3d3d3d"/>
        </g>
        <rect id="Прямоугольник_1393" data-name="Прямоугольник 1393" width="77.66" height="14.847" rx="7.423" transform="translate(71.184 10.28)" fill="#3d3d3d"/>
      </g>
    </g>
    <g id="Сгруппировать_3243" data-name="Сгруппировать 3243" transform="matrix(0.998, -0.07, 0.07, 0.998, 61, 378.334)">
      <g id="Background-2" data-name="Background" transform="translate(0 0.042)" fill="#1f1f1f" stroke="#3d3d3d" stroke-width="1">
        <rect width="271.003" height="63.858" rx="12" stroke="none"/>
        <rect x="0.5" y="0.5" width="270.003" height="62.858" rx="11.5" fill="none"/>
      </g>
      <g id="Category_Setting-2" data-name="Category Setting" transform="translate(13.672 13.744)">
        <text id="Restoraunt-2" data-name="Restoraunt" transform="translate(70.519 21.42)" fill="#3d3d3d" font-size="11" font-family="Rubik-Regular, Rubik"><tspan x="0" y="0">Restoraunt</tspan></text>
        <g id="Icon-2" data-name="Icon" transform="translate(25.126)">
          <ellipse id="Bakcground-2" data-name="Bakcground" cx="18.273" cy="18.246" rx="18.273" ry="18.246" transform="translate(0)" fill="#3d3d3d"/>
        </g>
        <g id="Сгруппировать_2678-2" data-name="Сгруппировать 2678" transform="translate(-0.765 10.729)">
          <path id="Контур_938-2" data-name="Контур 938" d="M0,0H14.892V14.892H0Z" fill="none"/>
          <path id="Контур_939-2" data-name="Контур 939" d="M12.308,12.687v1.241H4.862V12.687Zm1.862-4.344V9.585H3V8.344ZM12.308,4V5.241H4.862V4Z" transform="translate(-1.138 -1.518)" fill="#3d3d3d"/>
        </g>
        <g id="Сгруппировать_2717-2" data-name="Сгруппировать 2717" transform="translate(227.582 10.702)">
          <path id="Контур_946-2" data-name="Контур 946" d="M0,0H16.547V16.547H0Z" fill="none"/>
          <path id="Контур_947-2" data-name="Контур 947" d="M9.247,8.444l2.808-2.808.8.8L10.049,9.247l2.808,2.808-.8.8L9.247,10.049,6.438,12.857l-.8-.8L8.444,9.247,5.636,6.438l.8-.8Z" transform="translate(-0.973 -0.973)" fill="#3d3d3d"/>
        </g>
        <rect id="Прямоугольник_1393-2" data-name="Прямоугольник 1393" width="77.66" height="14.847" rx="7.423" transform="translate(70.484 10.253)" fill="#3d3d3d"/>
      </g>
    </g>
    <g id="Сгруппировать_3244" data-name="Сгруппировать 3244" transform="matrix(0.998, 0.07, -0.07, 0.998, 65.451, 395.747)">
      <g id="Background-3" data-name="Background" transform="translate(0 0.042)" fill="#1f1f1f" stroke="#3d3d3d" stroke-width="1">
        <rect width="271.143" height="63.961" rx="12" stroke="none"/>
        <rect x="0.5" y="0.5" width="270.143" height="62.961" rx="11.5" fill="none"/>
      </g>
      <g id="Category_Setting-3" data-name="Category Setting" transform="translate(13.677 13.748)">
        <text id="Restoraunt-3" data-name="Restoraunt" transform="translate(70.566 21.42)" fill="#3d3d3d" font-size="11" font-family="Rubik-Regular, Rubik"><tspan x="0" y="0">Restoraunt</tspan></text>
        <g id="Icon-3" data-name="Icon" transform="translate(25.126)">
          <ellipse id="Bakcground-3" data-name="Bakcground" cx="18.273" cy="18.275" rx="18.273" ry="18.275" transform="translate(0)" fill="#3d3d3d"/>
        </g>
        <g id="Сгруппировать_2678-3" data-name="Сгруппировать 2678" transform="translate(-0.64 10.757)">
          <path id="Контур_938-3" data-name="Контур 938" d="M0,0H14.892V14.892H0Z" fill="none"/>
          <path id="Контур_939-3" data-name="Контур 939" d="M12.308,12.687v1.241H4.862V12.687Zm1.862-4.344V9.585H3V8.344ZM12.308,4V5.241H4.862V4Z" transform="translate(-1.138 -1.518)" fill="#3d3d3d"/>
        </g>
        <g id="Сгруппировать_2717-3" data-name="Сгруппировать 2717" transform="translate(227.707 10.758)">
          <path id="Контур_946-3" data-name="Контур 946" d="M0,0H16.547V16.547H0Z" fill="none"/>
          <path id="Контур_947-3" data-name="Контур 947" d="M9.247,8.444l2.808-2.808.8.8L10.049,9.247l2.808,2.808-.8.8L9.247,10.049,6.438,12.857l-.8-.8L8.444,9.247,5.636,6.438l.8-.8Z" transform="translate(-0.973 -0.973)" fill="#3d3d3d"/>
        </g>
        <rect id="Прямоугольник_1393-3" data-name="Прямоугольник 1393" width="77.66" height="14.847" rx="7.423" transform="translate(70.537 10.28)" fill="#3d3d3d"/>
      </g>
    </g>
  </g>
</svg>
