<svg id="Data" xmlns="http://www.w3.org/2000/svg" width="24" height="24" viewBox="0 0 24 24">
  <path id="Контур_1135" data-name="Контур 1135" d="M0,0H24V24H0Z" fill="none"/>
  <g id="Сгруппировать_3199" data-name="Сгруппировать 3199">
    <path id="Контур_1152" data-name="Контур 1152" d="M0,0H24V24H0Z" fill="none"/>
    <g id="Сгруппировать_3200" data-name="Сгруппировать 3200">
      <path id="Контур_1153" data-name="Контур 1153" d="M0,0H24V24H0Z" fill="none"/>
      <path id="Контур_1154" data-name="Контур 1154" d="M15,4H5V20H19V8H15ZM3,2.992A1,1,0,0,1,4,2H16l5,5V20.993A1,1,0,0,1,20.007,22H3.993A1,1,0,0,1,3,21.008ZM13,12v4H11V12H8l4-4,4,4Z"/>
    </g>
  </g>
</svg>
