<svg xmlns="http://www.w3.org/2000/svg" width="108" height="40" viewBox="0 0 108 40">
  <defs>
    <linearGradient id="linear-gradient" x1="0.5" x2="0.5" y2="1" gradientUnits="objectBoundingBox">
      <stop offset="0" stop-color="#009bff"/>
      <stop offset="0.535" stop-color="#009bff" stop-opacity="0.98"/>
      <stop offset="1" stop-color="#009bff" stop-opacity="0.529"/>
    </linearGradient>
  </defs>
  <g id="Сгруппировать_3361" data-name="Сгруппировать 3361" transform="translate(-678 -133)">
    <rect id="Прямоугольник_1440" data-name="Прямоугольник 1440" width="108" height="40" transform="translate(678 133)" fill="#fff" opacity="0"/>
    <path id="Вычитание_9" data-name="Вычитание 9" d="M-3123.484-12135.874a15.291,15.291,0,0,1-5.991-1.08c-.125-.055-.228-.1-.322-.144h12.594c-.108.05-.216.1-.322.144A15.2,15.2,0,0,1-3123.484-12135.874Zm-25.846,0a15.567,15.567,0,0,1-5.976-1.064c-.136-.058-.255-.109-.363-.159h12.66a12.53,12.53,0,0,1-1.877.665A17.135,17.135,0,0,1-3149.33-12135.874Zm74.446-.36h-4.752a1.305,1.305,0,0,1-.952-.308,4.691,4.691,0,0,1-.415-.449l-.07-.106h7.124a.9.9,0,0,1-.266.592A.911.911,0,0,1-3074.883-12136.234Zm-14.47,0h-5.436a.916.916,0,0,1-.647-.271.874.874,0,0,1-.287-.592h7.3a.9.9,0,0,1-.269.592A.907.907,0,0,1-3089.354-12136.234Zm-11.772,0h-6.12a.914.914,0,0,1-.647-.271.874.874,0,0,1-.287-.592h7.988a.9.9,0,0,1-.269.592A.908.908,0,0,1-3101.126-12136.234Zm-64.441,0h-5.83a.911.911,0,0,1-.668-.271.91.91,0,0,1-.266-.592h7.735a.874.874,0,0,1-.287.592A.959.959,0,0,1-3165.567-12136.234Zm91.621-3.467h-8.84l-1.715-2.606h10.555v2.605Zm-14.47,0h-7.31v-2.606h7.31v2.605Zm-11.772,0h-7.994v-2.606h7.994v2.605Zm-13.708,0H-3133.1c-.133-.172-.258-.345-.37-.513a8.625,8.625,0,0,1-1.012-2.094h9.4a3.919,3.919,0,0,0,1.6.312,3.854,3.854,0,0,0,1.581-.312h9.387a8.609,8.609,0,0,1-1.012,2.094c-.114.17-.239.343-.37.513Zm-25.583,0h-19.508c-.117-.151-.229-.306-.331-.458a8.606,8.606,0,0,1-1.038-2.148h9.343a4.247,4.247,0,0,0,1.684.312,4.415,4.415,0,0,0,1.7-.312h9.576a7.231,7.231,0,0,1-.587,1.373,8.354,8.354,0,0,1-.843,1.233Zm-25.113,0h-7.74v-2.606h7.74v2.605Zm76.177-6.513h-7.31v-14.284a.866.866,0,0,1,.29-.665.916.916,0,0,1,.647-.271H-3090a1.294,1.294,0,0,1,.934.289,2.714,2.714,0,0,1,.4.468l7.417,11.915v-11.735a.864.864,0,0,1,.287-.665.969.969,0,0,1,.684-.271h5.4a.911.911,0,0,1,.668.271.893.893,0,0,1,.269.665v14.283h-13.125l-1.345-2.045v2.045Zm-38.6,0h-8.034c-.015-.8-.021-1.631-.021-2.53,0-1.169.011-2.211.033-3.187a10.272,10.272,0,0,1,1.566-5.4,9.206,9.206,0,0,1,4.017-3.33,14.668,14.668,0,0,1,5.973-1.135,14.606,14.606,0,0,1,5.943,1.135,9.338,9.338,0,0,1,4.032,3.33,9.945,9.945,0,0,1,1.548,5.4c.047,1.079.07,2.151.07,3.187,0,.841-.016,1.691-.046,2.529h-8.036c.036-.908.055-1.8.055-2.64,0-.945-.024-1.944-.07-2.97a5.038,5.038,0,0,0-.489-2.2,2.85,2.85,0,0,0-1.224-1.26,3.893,3.893,0,0,0-1.782-.4,4,4,0,0,0-1.8.4,2.819,2.819,0,0,0-1.242,1.26,5.037,5.037,0,0,0-.485,2.2c-.024,1-.037,2-.037,2.97,0,.861.01,1.749.028,2.64Zm26.828,0h-7.994v-14.284a.866.866,0,0,1,.29-.665.914.914,0,0,1,.647-.271h6.12a.908.908,0,0,1,.666.271.894.894,0,0,1,.271.665v14.283Zm-52.682,0h-8.063c-.016-.829-.024-1.7-.024-2.585,0-1.116.012-2.206.037-3.238a10.191,10.191,0,0,1,1.639-5.418,9.093,9.093,0,0,1,4.065-3.26,15.192,15.192,0,0,1,5.888-1.08,17.016,17.016,0,0,1,4.444.559,11.645,11.645,0,0,1,3.69,1.693,8.484,8.484,0,0,1,2.558,2.79,8.078,8.078,0,0,1,.971,3.886.756.756,0,0,1-.232.559.769.769,0,0,1-.559.234h-6.083a1.213,1.213,0,0,1-.794-.217,1.724,1.724,0,0,1-.433-.754,3.484,3.484,0,0,0-1.367-2.09,4.192,4.192,0,0,0-2.194-.541,3.635,3.635,0,0,0-2.521.849,4.094,4.094,0,0,0-1.007,2.97c-.068,1.829-.073,3.728-.013,5.643Zm-11.722,0h-7.74v-6.8l-4.5,3.455a1.026,1.026,0,0,1-.533.163.845.845,0,0,1-.169-.017,1.126,1.126,0,0,1-.632-.434l-2.628-3.418a1.137,1.137,0,0,1-.125-.721.816.816,0,0,1,.415-.613l8.494-6.587a1.057,1.057,0,0,1,.36-.2,1.49,1.49,0,0,1,.433-.055h5.65a.959.959,0,0,1,.684.271.866.866,0,0,1,.29.665v14.283Z" transform="translate(3859.439 12302.154)" fill="#000000"/>
  </g>
</svg>
