<svg id="Icon_Transaction_" data-name="Icon (Transaction))" xmlns="http://www.w3.org/2000/svg" width="24" height="24" viewBox="0 0 24 24">
  <rect id="Прямоугольник_1219" data-name="Прямоугольник 1219" width="24" height="24" fill="#fff" opacity="0"/>
  <path id="phone_iphone_FILL1_wght300_GRAD0_opsz24" d="M7.3,22.5a1.793,1.793,0,0,1-1.8-1.8V3.3a1.736,1.736,0,0,1,.525-1.275A1.736,1.736,0,0,1,7.3,1.5h9.4a1.736,1.736,0,0,1,1.275.525A1.736,1.736,0,0,1,18.5,3.3V20.7a1.793,1.793,0,0,1-1.8,1.8ZM12,20.275a.827.827,0,0,0,.625-.263.889.889,0,0,0,.25-.637.862.862,0,0,0-.25-.613.876.876,0,0,0-1.25,0,.862.862,0,0,0-.25.613.889.889,0,0,0,.25.637A.827.827,0,0,0,12,20.275Zm-5-4H17V5.75H7Z"/>
</svg>
