<svg id="Icon_Transaction_" data-name="Icon (Transaction))" xmlns="http://www.w3.org/2000/svg" width="24" height="24" viewBox="0 0 24 24">
  <rect id="Прямоугольник_1219" data-name="Прямоугольник 1219" width="24" height="24" fill="#fff" opacity="0"/>
  <path id="bolt_FILL1_wght400_GRAD0_opsz24" d="M10.675,21a.571.571,0,0,1-.45-.2.539.539,0,0,1-.125-.475L11,14H7.5q-.375,0-.463-.2a.641.641,0,0,1,.113-.55l5.7-9.975a.389.389,0,0,1,.2-.2A.622.622,0,0,1,13.325,3a.571.571,0,0,1,.45.2.539.539,0,0,1,.125.475L13,10h3.5q.375,0,.462.2a.637.637,0,0,1-.112.55l-5.7,9.975a.389.389,0,0,1-.2.2.622.622,0,0,1-.275.075Z" transform="translate(-0.011)"/>
</svg>
