<svg id="Icon_Transaction_" data-name="Icon (Transaction))" xmlns="http://www.w3.org/2000/svg" width="24" height="24" viewBox="0 0 24 24">
  <rect id="Прямоугольник_1219" data-name="Прямоугольник 1219" width="24" height="24" fill="#fff" opacity="0"/>
  <path id="elderly_woman_FILL1_wght300_GRAD0_opsz24" d="M7.5,22.85l-1.2-.9L8.625,18.7H6.375a21.947,21.947,0,0,1,.55-3.512A31.167,31.167,0,0,1,8.15,11.075a14.457,14.457,0,0,1,1.813-3.4,2.848,2.848,0,0,1,2.212-1.4,1.34,1.34,0,0,1,1.163.5q.362.5.962,1.5a10.871,10.871,0,0,0,1.475,2.037,6.5,6.5,0,0,0,1.55,1.163,1.526,1.526,0,0,1,.45-.325,1.283,1.283,0,0,1,.525-.1,1.406,1.406,0,0,1,1.037.412,1.348,1.348,0,0,1,.413.988v10.4h-.875V12.45a.5.5,0,0,0-.163-.363.528.528,0,0,0-.387-.162.556.556,0,0,0-.525.525v.975h-.875V12.95a12.642,12.642,0,0,1-2-1.512A7.349,7.349,0,0,1,13.375,9.5l-.75,3.5,2.025,5.575V22.85h-1.5V18.7H10.5Zm5.9-17.5a1.764,1.764,0,0,1-1.312-.55,1.8,1.8,0,0,1-.538-1.3,2.757,2.757,0,0,1,.1-.55,1.162,1.162,0,0,1-.412-.338.777.777,0,0,1-.163-.487.879.879,0,0,1,.275-.663A.911.911,0,0,1,12,1.2a.882.882,0,0,1,.5.15,1.019,1.019,0,0,1,.35.4,1.358,1.358,0,0,1,.263-.075A1.6,1.6,0,0,1,13.4,1.65a1.777,1.777,0,0,1,1.3.55,1.811,1.811,0,0,1,0,2.6,1.777,1.777,0,0,1-1.3.55Z" transform="translate(-1.025 -0.025)"/>
</svg>
