<svg id="Icon_Transaction_" data-name="Icon (Transaction))" xmlns="http://www.w3.org/2000/svg" width="24" height="24" viewBox="0 0 24 24">
  <rect id="Прямоугольник_1219" data-name="Прямоугольник 1219" width="24" height="24" fill="#fff" opacity="0"/>
  <path id="directions_car_FILL1_wght400_GRAD0_opsz24" d="M6,19v.525a1.426,1.426,0,0,1-.425,1.05A1.457,1.457,0,0,1,4.5,21,1.5,1.5,0,0,1,3,19.5V12L5.1,6a1.416,1.416,0,0,1,.538-.725A1.454,1.454,0,0,1,6.5,5h11a1.458,1.458,0,0,1,.863.275A1.418,1.418,0,0,1,18.9,6L21,12v7.525a1.426,1.426,0,0,1-.425,1.05A1.513,1.513,0,0,1,18,19.5V19Zm-.2-9H18.2L17.15,7H6.85Zm1.7,6a1.5,1.5,0,1,0-1.062-2.562A1.5,1.5,0,0,0,7.5,16Zm9,0a1.5,1.5,0,1,0-1.062-.438A1.444,1.444,0,0,0,16.5,16Z" transform="translate(0 -1)"/>
</svg>
