<svg id="Icon_Transaction_" data-name="Icon (Transaction))" xmlns="http://www.w3.org/2000/svg" width="24" height="24" viewBox="0 0 24 24">
  <rect id="Прямоугольник_1219" data-name="Прямоугольник 1219" width="24" height="24" fill="#fff" opacity="0"/>
  <path id="storefront_FILL1_wght300_GRAD0_opsz24" d="M20.775,10.975V18.95a1.736,1.736,0,0,1-.525,1.275,1.766,1.766,0,0,1-1.3.525H5.075a1.793,1.793,0,0,1-1.8-1.8v-8A2.964,2.964,0,0,1,2.35,9.662a2.514,2.514,0,0,1,0-1.712l1-3.3a2.065,2.065,0,0,1,.688-1.013A1.774,1.774,0,0,1,5.175,3.25h13.65a1.8,1.8,0,0,1,1.15.375,2.024,2.024,0,0,1,.675,1L21.675,7.95a2.514,2.514,0,0,1,0,1.712,3.247,3.247,0,0,1-.9,1.313Zm-6.55-.725a1.483,1.483,0,0,0,1.213-.5,1.362,1.362,0,0,0,.337-1.075l-.6-3.925h-2.4V8.7A1.553,1.553,0,0,0,13.2,9.787,1.342,1.342,0,0,0,14.225,10.25Zm-4.5,0a1.466,1.466,0,0,0,1.113-.463A1.53,1.53,0,0,0,11.275,8.7V4.75H8.85L8.25,8.7a1.325,1.325,0,0,0,.338,1.05,1.393,1.393,0,0,0,1.137.5Zm-4.45,0a1.32,1.32,0,0,0,.95-.387,1.714,1.714,0,0,0,.5-.963L7.3,4.75H5.175a.4.4,0,0,0-.25.075.448.448,0,0,0-.15.225L3.825,8.3A1.561,1.561,0,0,0,4,9.587a1.344,1.344,0,0,0,1.275.663Zm13.5,0a1.51,1.51,0,0,0,1.45-1.95L19.2,5.025a.412.412,0,0,0-.138-.213A.452.452,0,0,0,18.8,4.75H16.725l.6,4.15a1.587,1.587,0,0,0,.475.963,1.35,1.35,0,0,0,.975.387Z" transform="translate(-0.012)"/>
</svg>
