<svg id="Icon_Transaction_" data-name="Icon (Transaction))" xmlns="http://www.w3.org/2000/svg" width="24" height="24" viewBox="0 0 24 24">
  <rect id="Прямоугольник_1219" data-name="Прямоугольник 1219" width="24" height="24" fill="#fff" opacity="0"/>
  <path id="local_gas_station_FILL1_wght300_GRAD0_opsz24" d="M4.5,20.5V5.3A1.793,1.793,0,0,1,6.3,3.5h5.4a1.793,1.793,0,0,1,1.8,1.8v6.5h.95a1.833,1.833,0,0,1,1.825,1.825V18.15a1.15,1.15,0,0,0,2.3,0v-7a1.631,1.631,0,0,1-.475.175,2.672,2.672,0,0,1-.525.05,2.145,2.145,0,0,1-1.562-.625,2.083,2.083,0,0,1-.638-1.55A2.17,2.17,0,0,1,15.8,7.875,2.066,2.066,0,0,1,16.925,7.1l-2.25-2.25L15.5,4l3.575,3.5a2.332,2.332,0,0,1,.525.787,2.439,2.439,0,0,1,.175.913v8.95a2.254,2.254,0,0,1-.687,1.675,2.386,2.386,0,0,1-3.326,0,2.254,2.254,0,0,1-.687-1.675V13.3a.3.3,0,0,0-.3-.3H13.5v7.5ZM6,10.25h6V5.3a.354.354,0,0,0-.3-.3H6.3a.354.354,0,0,0-.3.3Zm11.575-.05a.984.984,0,1,0-.712-.288A.968.968,0,0,0,17.575,10.2Z" transform="translate(-0.137)"/>
</svg>
