<svg id="Icon_Transaction_" data-name="Icon (Transaction))" xmlns="http://www.w3.org/2000/svg" width="24" height="24" viewBox="0 0 24 24">
  <rect id="Прямоугольник_1219" data-name="Прямоугольник 1219" width="24" height="24" fill="#fff" opacity="0"/>
  <path id="pets_FILL1_wght300_GRAD0_opsz24" d="M4.5,11.875a2.22,2.22,0,0,1-2.25-2.25A2.22,2.22,0,0,1,4.5,7.375a2.22,2.22,0,0,1,2.25,2.25,2.22,2.22,0,0,1-2.25,2.25Zm4.5-4a2.22,2.22,0,0,1-2.25-2.25A2.22,2.22,0,0,1,9,3.375a2.22,2.22,0,0,1,2.25,2.25A2.22,2.22,0,0,1,9,7.875Zm6,0a2.22,2.22,0,0,1-2.25-2.25,2.263,2.263,0,0,1,3.85-1.6,2.175,2.175,0,0,1,.65,1.6A2.22,2.22,0,0,1,15,7.875Zm4.5,4a2.22,2.22,0,0,1-2.25-2.25,2.25,2.25,0,1,1,4.5,0,2.22,2.22,0,0,1-2.25,2.25Zm-12.85,10a2.179,2.179,0,0,1-1.712-.788,2.737,2.737,0,0,1-.688-1.862,3.062,3.062,0,0,1,.875-2.175Q6,16.125,6.85,15.2A9.114,9.114,0,0,0,8.1,13.512,9.9,9.9,0,0,1,9.35,11.8a5.286,5.286,0,0,1,1.188-1.013A2.712,2.712,0,0,1,12,10.375a2.985,2.985,0,0,1,1.488.387,4.074,4.074,0,0,1,1.187,1.013,11.307,11.307,0,0,1,1.237,1.712A11.334,11.334,0,0,0,17.15,15.2q.85.925,1.725,1.85a3.062,3.062,0,0,1,.875,2.175,2.737,2.737,0,0,1-.688,1.862,2.179,2.179,0,0,1-1.712.788,15.95,15.95,0,0,1-2.675-.225,16.014,16.014,0,0,0-5.35,0,15.95,15.95,0,0,1-2.675.225Z" transform="translate(0 -0.625)"/>
</svg>
