<svg id="Icon_Transaction_" data-name="Icon (Transaction))" xmlns="http://www.w3.org/2000/svg" width="24" height="24" viewBox="0 0 24 24">
  <rect id="Прямоугольник_1219" data-name="Прямоугольник 1219" width="24" height="24" fill="#fff" opacity="0"/>
  <path id="local_cafe_FILL1_wght300_GRAD0_opsz24" d="M4.5,20.45v-1.5H19.275v1.5ZM8,16.55a3.5,3.5,0,0,1-3.5-3.5V3.55H19.275a1.716,1.716,0,0,1,1.275.537,1.779,1.779,0,0,1,.525,1.288v2.5a1.747,1.747,0,0,1-.525,1.262,1.715,1.715,0,0,1-1.275.538H17.5V13.05a3.5,3.5,0,0,1-3.5,3.5Zm9.5-8.375h1.775a.3.3,0,0,0,.3-.3v-2.5a.324.324,0,0,0-.087-.238.292.292,0,0,0-.213-.087H17.5Z" transform="translate(-0.787)"/>
</svg>
