<svg id="Icon_Transaction_" data-name="Icon (Transaction))" xmlns="http://www.w3.org/2000/svg" width="24" height="24" viewBox="0 0 24 24">
  <rect id="Прямоугольник_1219" data-name="Прямоугольник 1219" width="24" height="24" fill="#fff" opacity="0"/>
  <path id="rocket_launch_FILL1_wght300_GRAD0_opsz24" d="M3.075,10.925,6.55,12.4A21.16,21.16,0,0,1,7.987,9.487,21.793,21.793,0,0,1,9.975,6.8l-1.35-.275a1.728,1.728,0,0,0-.9.037,1.862,1.862,0,0,0-.75.463ZM7.7,12.875l3.65,3.675a16.6,16.6,0,0,0,3.175-1.588A17.276,17.276,0,0,0,17.3,12.75a13.637,13.637,0,0,0,3.025-4.562,10.335,10.335,0,0,0,.725-5.013,10.246,10.246,0,0,0-5.012.737A13.541,13.541,0,0,0,11.5,6.95,15.988,15.988,0,0,0,9.263,9.738,17.451,17.451,0,0,0,7.7,12.875ZM14.225,10a1.75,1.75,0,0,1-.5-1.25,1.666,1.666,0,0,1,.5-1.225,1.813,1.813,0,0,1,2.5,0,1.666,1.666,0,0,1,.5,1.225,1.768,1.768,0,0,1-3,1.25ZM13.3,21.175l3.9-3.925a1.862,1.862,0,0,0,.463-.75,1.642,1.642,0,0,0,.037-.875l-.275-1.375a21.793,21.793,0,0,1-2.687,1.988A22.468,22.468,0,0,1,11.8,17.7ZM4.6,16.1a2.456,2.456,0,0,1,1.775-.737A2.331,2.331,0,0,1,8.15,16.1a2.4,2.4,0,0,1,.725,1.762A2.483,2.483,0,0,1,8.15,19.65a4.855,4.855,0,0,1-1.863.962,18.565,18.565,0,0,1-3.312.663,17.426,17.426,0,0,1,.638-3.313A4.632,4.632,0,0,1,4.6,16.1Z" transform="translate(-0.042 -0.196)"/>
</svg>
