<svg id="Icon_Transaction_" data-name="Icon (Transaction))" xmlns="http://www.w3.org/2000/svg" width="24" height="24" viewBox="0 0 24 24">
  <rect id="Прямоугольник_1219" data-name="Прямоугольник 1219" width="24" height="24" fill="#fff" opacity="0"/>
  <path id="handshake_FILL1_wght300_GRAD0_opsz24" d="M11.95,20.85a1.231,1.231,0,0,0,.388-.062.859.859,0,0,0,.362-.263l8.375-8.375a2.645,2.645,0,0,0,.575-.85,2.49,2.49,0,0,0,.2-.975,3.079,3.079,0,0,0-.2-1.15,2.577,2.577,0,0,0-.575-.875l-4.25-4.275a2.483,2.483,0,0,0-.912-.587,3.137,3.137,0,0,0-1.088-.188,2.761,2.761,0,0,0-.975.188A2.424,2.424,0,0,0,12.975,4l-.5.5L16.05,8.05a1.733,1.733,0,0,1,.425.662,2.181,2.181,0,0,1,.125.713,1.762,1.762,0,0,1-.538,1.337,1.828,1.828,0,0,1-1.312.513,1.99,1.99,0,0,1-.712-.138,1.783,1.783,0,0,1-.638-.412l-2.95-2.95L5.2,13.025a.851.851,0,0,0-.25.35,1.132,1.132,0,0,0-.075.4.948.948,0,0,0,.275.7.918.918,0,0,0,.675.275,1.106,1.106,0,0,0,.45-.088.862.862,0,0,0,.325-.237L10.625,10.4l.65.625L7.225,15.05a1.585,1.585,0,0,0-.237.362.962.962,0,0,0-.088.413.908.908,0,0,0,.288.662.936.936,0,0,0,.687.288,1.054,1.054,0,0,0,.425-.087,1.138,1.138,0,0,0,.35-.238l4.15-4.125.625.625L9.275,17.1a.862.862,0,0,0-.237.325,1.044,1.044,0,0,0-.088.425.982.982,0,0,0,.975.975.986.986,0,0,0,.4-.088,1.124,1.124,0,0,0,.35-.237l4.15-4.15.625.625-4.15,4.15a1.434,1.434,0,0,0-.238.388,1.03,1.03,0,0,0-.087.387.885.885,0,0,0,.288.687.982.982,0,0,0,.687.263Zm-8.1-7.775,6.575-6.55,3.6,3.55a1.142,1.142,0,0,0,.35.25,1.007,1.007,0,0,0,.4.075.9.9,0,0,0,.675-.288.958.958,0,0,0,.275-.687,1.132,1.132,0,0,0-.075-.4.972.972,0,0,0-.225-.35l-4.65-4.65a2.506,2.506,0,0,0-.9-.6,3.017,3.017,0,0,0-1.05-.175,2.369,2.369,0,0,0-.975.212,2.739,2.739,0,0,0-.825.563l-4.1,4.1a2.677,2.677,0,0,0-.55.85,2.889,2.889,0,0,0-.225,1.15,3.036,3.036,0,0,0,.225,1.137,2.909,2.909,0,0,0,.65.988Z" transform="translate(0 -0.05)"/>
</svg>
