<svg id="Icon_Transaction_" data-name="Icon (Transaction))" xmlns="http://www.w3.org/2000/svg" width="24" height="24" viewBox="0 0 24 24">
  <rect id="Прямоугольник_1219" data-name="Прямоугольник 1219" width="24" height="24" fill="#fff" opacity="0"/>
  <path id="cookie_FILL1_wght300_GRAD0_opsz24" d="M10.5,9.9a1.4,1.4,0,0,0,.988-2.388A1.4,1.4,0,1,0,9.512,9.487,1.348,1.348,0,0,0,10.5,9.9Zm-2,5a1.408,1.408,0,1,0-.987-.412A1.35,1.35,0,0,0,8.5,14.9Zm6.5,1a.9.9,0,1,0-.637-.263A.865.865,0,0,0,15,15.9Zm-3,5.85a9.53,9.53,0,0,1-3.8-.762A9.755,9.755,0,0,1,3.013,15.8,9.668,9.668,0,0,1,3.15,7.962,10.152,10.152,0,0,1,5.6,4.637,9.684,9.684,0,0,1,9.262,2.6,9.4,9.4,0,0,1,13.8,2.4a4.156,4.156,0,0,0,2.988,4.637,4.475,4.475,0,0,0,2.137.063,2.717,2.717,0,0,0,.463,2.812,3.455,3.455,0,0,0,2.337,1.313,9.794,9.794,0,0,1-.587,4.037A10.087,10.087,0,0,1,19.1,18.613,9.912,9.912,0,0,1,15.938,20.9,9.268,9.268,0,0,1,12,21.75Z" transform="translate(0.003 0.017)"/>
</svg>
