<svg id="Icon_Transaction_" data-name="Icon (Transaction))" xmlns="http://www.w3.org/2000/svg" width="24" height="24" viewBox="0 0 24 24">
  <rect id="Прямоугольник_1219" data-name="Прямоугольник 1219" width="24" height="24" fill="#fff" opacity="0"/>
  <path id="health_and_safety_FILL1_wght400_GRAD0_opsz24" d="M12,15.5A1.5,1.5,0,0,0,13.5,14V13h1a1.5,1.5,0,1,0,0-3h-1V9a1.5,1.5,0,1,0-3,0v1h-1a1.5,1.5,0,1,0,0,3h1v1A1.5,1.5,0,0,0,12,15.5Zm0,6.425h-.25a.5.5,0,0,1-.225-.05,10.211,10.211,0,0,1-5.4-4.063A11.449,11.449,0,0,1,4,11.1V6.375A1.868,1.868,0,0,1,4.363,5.25,2.061,2.061,0,0,1,5.3,4.525l6-2.25a2.022,2.022,0,0,1,1.4,0l6,2.25a2.067,2.067,0,0,1,.938.725A1.872,1.872,0,0,1,20,6.375V11.1a11.449,11.449,0,0,1-2.125,6.712,10.211,10.211,0,0,1-5.4,4.063,1.485,1.485,0,0,1-.475.05Z" transform="translate(0 -0.038)"/>
</svg>
