<svg id="Icon_Transaction_" data-name="Icon (Transaction))" xmlns="http://www.w3.org/2000/svg" width="24" height="24" viewBox="0 0 24 24">
  <rect id="Прямоугольник_1219" data-name="Прямоугольник 1219" width="24" height="24" fill="#fff" opacity="0"/>
  <path id="luggage_FILL1_wght300_GRAD0_opsz24" d="M7.3,20.5a1.793,1.793,0,0,1-1.8-1.8V8.25A1.75,1.75,0,0,1,7.25,6.5h2V3.7a.742.742,0,0,1,.363-.675A1.553,1.553,0,0,1,10.45,2.8h3.1a1.553,1.553,0,0,1,.837.225.742.742,0,0,1,.363.675V6.5H16.7a1.793,1.793,0,0,1,1.8,1.8V18.7a1.793,1.793,0,0,1-1.8,1.8.828.828,0,0,1-.262.625.892.892,0,0,1-.638.25.859.859,0,0,1-.612-.25.827.827,0,0,1-.263-.625H9.075a.827.827,0,0,1-.263.625.859.859,0,0,1-.612.25.892.892,0,0,1-.638-.25A.828.828,0,0,1,7.3,20.5Zm3.15-14h3.1V3.975h-3.1ZM8.15,17.75h1.2V9.25H8.15Zm3.25,0h1.2V9.25H11.4Zm3.25,0h1.2V9.25h-1.2Z" transform="translate(0 -0.087)"/>
</svg>
