<svg id="Icon_Transaction_" data-name="Icon (Transaction))" xmlns="http://www.w3.org/2000/svg" width="24" height="24" viewBox="0 0 24 24">
  <rect id="Прямоугольник_1219" data-name="Прямоугольник 1219" width="24" height="24" fill="#fff" opacity="0"/>
  <path id="headphones_FILL1_wght300_GRAD0_opsz24" d="M8.55,20.5H5.3a1.793,1.793,0,0,1-1.8-1.8V12a8.145,8.145,0,0,1,.675-3.312A8.649,8.649,0,0,1,8.688,4.175,8.145,8.145,0,0,1,12,3.5a8.145,8.145,0,0,1,3.312.675,8.649,8.649,0,0,1,4.513,4.513A8.145,8.145,0,0,1,20.5,12v6.7a1.793,1.793,0,0,1-1.8,1.8H15.45V13.425H19V12a6.754,6.754,0,0,0-2.038-4.963A6.753,6.753,0,0,0,12,5,6.753,6.753,0,0,0,7.038,7.037,6.754,6.754,0,0,0,5,12v1.425H8.55Z"/>
</svg>
