<svg id="Icon_Transaction_" data-name="Icon (Transaction))" xmlns="http://www.w3.org/2000/svg" width="24" height="24" viewBox="0 0 24 24">
  <rect id="Прямоугольник_1219" data-name="Прямоугольник 1219" width="24" height="24" fill="#fff" opacity="0"/>
  <path id="sports_esports_FILL1_wght400_GRAD0_opsz24" d="M4.55,19a2.371,2.371,0,0,1-1.975-.887A2.745,2.745,0,0,1,2.05,15.95L3.1,8.45A3.968,3.968,0,0,1,4.438,5.975,3.836,3.836,0,0,1,7.05,5h9.9a3.836,3.836,0,0,1,2.612.975A3.968,3.968,0,0,1,20.9,8.45l1.05,7.5a2.745,2.745,0,0,1-.525,2.163A2.371,2.371,0,0,1,19.45,19a2.5,2.5,0,0,1-.975-.188,2.545,2.545,0,0,1-.825-.562L15.4,16H8.6L6.35,18.25a2.545,2.545,0,0,1-.825.562A2.5,2.5,0,0,1,4.55,19ZM17,13a.984.984,0,1,0-.712-.288A.965.965,0,0,0,17,13Zm-2-3a.984.984,0,1,0-.712-.288A.968.968,0,0,0,15,10ZM8.5,13a.727.727,0,0,0,.75-.75v-1h1a.75.75,0,1,0,0-1.5h-1v-1a.75.75,0,1,0-1.5,0v1h-1a.75.75,0,1,0,0,1.5h1v1A.728.728,0,0,0,8.5,13Z"/>
</svg>
