<svg id="Icon_Transaction_" data-name="Icon (Transaction))" xmlns="http://www.w3.org/2000/svg" width="24" height="24" viewBox="0 0 24 24">
  <rect id="Прямоугольник_1219" data-name="Прямоугольник 1219" width="24" height="24" fill="#fff" opacity="0"/>
  <path id="group_FILL1_wght300_GRAD0_opsz24" d="M1.8,19.3V17.075A2.421,2.421,0,0,1,2.2,15.7a2.831,2.831,0,0,1,1.075-.95,17.013,17.013,0,0,1,2.863-1.062A12.112,12.112,0,0,1,9.3,13.3a12.124,12.124,0,0,1,3.163.388,17.025,17.025,0,0,1,2.862,1.062,2.831,2.831,0,0,1,1.075.95,2.421,2.421,0,0,1,.4,1.375V19.3Zm17,0V16.95a3.814,3.814,0,0,0-.488-1.863A4.766,4.766,0,0,0,16.95,13.55a10.58,10.58,0,0,1,1.9.462,13.3,13.3,0,0,1,1.725.738,3.7,3.7,0,0,1,1.2.988A1.97,1.97,0,0,1,22.2,16.95V19.3ZM9.3,11.7a3.351,3.351,0,0,1-2.475-1.038A3.383,3.383,0,0,1,5.8,8.2,3.5,3.5,0,0,1,9.3,4.7a3.5,3.5,0,0,1,3.5,3.5,3.383,3.383,0,0,1-1.025,2.462A3.351,3.351,0,0,1,9.3,11.7Zm8.625-3.5A3.383,3.383,0,0,1,16.9,10.662,3.351,3.351,0,0,1,14.425,11.7a3.071,3.071,0,0,1-.413-.038,3.313,3.313,0,0,1-.437-.087,5.325,5.325,0,0,0,.913-1.587A5.219,5.219,0,0,0,14.8,8.2a5,5,0,0,0-.325-1.8,5.93,5.93,0,0,0-.9-1.575,1.759,1.759,0,0,1,.425-.1,3.857,3.857,0,0,1,.425-.025,3.5,3.5,0,0,1,3.5,3.5Z"/>
</svg>
