<svg id="Icon_Transaction_" data-name="Icon (Transaction))" xmlns="http://www.w3.org/2000/svg" width="24" height="24" viewBox="0 0 24 24">
  <rect id="Прямоугольник_1219" data-name="Прямоугольник 1219" width="24" height="24" fill="#fff" opacity="0"/>
  <path id="database_FILL0_wght300_GRAD0_opsz24" d="M12,11.325a15.629,15.629,0,0,1-6.2-1.1q-2.55-1.1-2.55-2.65T5.8,4.925a15.629,15.629,0,0,1,6.2-1.1,15.629,15.629,0,0,1,6.2,1.1q2.55,1.1,2.55,2.65t-2.55,2.65a15.629,15.629,0,0,1-6.2,1.1Zm0,4.5a15.629,15.629,0,0,1-6.2-1.1q-2.55-1.1-2.55-2.65v-1.55a2.472,2.472,0,0,0,1.162,1.45,9.352,9.352,0,0,0,2.25,1.037,16.206,16.206,0,0,0,2.738.613,19.226,19.226,0,0,0,2.6.2,19.226,19.226,0,0,0,2.6-.2,16.179,16.179,0,0,0,2.737-.613,9.328,9.328,0,0,0,2.25-1.037,2.472,2.472,0,0,0,1.163-1.45v1.55q0,1.55-2.55,2.65a15.629,15.629,0,0,1-6.2,1.1Zm0,4.5a15.629,15.629,0,0,1-6.2-1.1q-2.55-1.1-2.55-2.65v-1.55a2.472,2.472,0,0,0,1.162,1.45,9.378,9.378,0,0,0,2.25,1.038,16.271,16.271,0,0,0,2.738.612,19.227,19.227,0,0,0,2.6.2,19.226,19.226,0,0,0,2.6-.2,16.244,16.244,0,0,0,2.737-.612,9.354,9.354,0,0,0,2.25-1.038,2.472,2.472,0,0,0,1.163-1.45v1.55q0,1.55-2.55,2.65a15.629,15.629,0,0,1-6.2,1.1Z" transform="translate(0 -0.075)"/>
</svg>
