<svg id="Icon_Transaction_" data-name="Icon (Transaction))" xmlns="http://www.w3.org/2000/svg" width="24" height="24" viewBox="0 0 24 24">
  <rect id="Прямоугольник_1219" data-name="Прямоугольник 1219" width="24" height="24" fill="#fff" opacity="0"/>
  <path id="restaurant_menu_FILL1_wght400_GRAD0_opsz24_1_" data-name="restaurant_menu_FILL1_wght400_GRAD0_opsz24 (1)" d="M3.725,20.3a1.028,1.028,0,0,1,0-1.4l9.55-9.55a3.678,3.678,0,0,1-.125-2.375A4.855,4.855,0,0,1,14.575,4.6a5.12,5.12,0,0,1,2.95-1.55,2.929,2.929,0,0,1,3.45,3.45,5.12,5.12,0,0,1-1.55,2.95,4.855,4.855,0,0,1-2.375,1.425,3.678,3.678,0,0,1-2.375-.125L13.425,12l6.9,6.9a1.028,1.028,0,0,1,0,1.4.967.967,0,0,1-1.4,0l-6.9-6.85-6.9,6.85a.967.967,0,0,1-1.4,0Zm3.65-7.85-3-3A4.407,4.407,0,0,1,3.062,6.825,4.472,4.472,0,0,1,3.625,4a.931.931,0,0,1,.75-.475,1.014,1.014,0,0,1,.875.35L10.575,9.25Z" transform="translate(-0.02 0.195)"/>
</svg>
