<svg id="Icon_Transaction_" data-name="Icon (Transaction))" xmlns="http://www.w3.org/2000/svg" width="24" height="24" viewBox="0 0 24 24">
  <rect id="Прямоугольник_1219" data-name="Прямоугольник 1219" width="24" height="24" fill="#fff" opacity="0"/>
  <path id="photo_camera_FILL1_wght300_GRAD0_opsz24" d="M12,17.125A4.1,4.1,0,0,0,16.125,13,4.1,4.1,0,0,0,12,8.875,4.1,4.1,0,0,0,7.875,13,4.1,4.1,0,0,0,12,17.125ZM4.3,20.5a1.793,1.793,0,0,1-1.8-1.8V7.3A1.793,1.793,0,0,1,4.3,5.5H7.35l1.85-2h5.6l1.85,2H19.7a1.793,1.793,0,0,1,1.8,1.8V18.7a1.793,1.793,0,0,1-1.8,1.8Z" transform="translate(0.5 0.5)"/>
</svg>
