<svg id="Icon_Transaction_" data-name="Icon (Transaction))" xmlns="http://www.w3.org/2000/svg" width="24" height="24" viewBox="0 0 24 24">
  <rect id="Прямоугольник_1219" data-name="Прямоугольник 1219" width="24" height="24" fill="#fff" opacity="0"/>
  <path id="explore_FILL1_wght300_GRAD0_opsz24" d="M6.825,17.175l6.9-3.45,3.45-6.9-6.9,3.45ZM12,13a.982.982,0,1,1,.713-.288A.965.965,0,0,1,12,13Zm0,8.5a9.263,9.263,0,0,1-3.712-.75A9.432,9.432,0,0,1,3.25,15.712a9.563,9.563,0,0,1,0-7.425A9.435,9.435,0,0,1,8.288,3.25a9.563,9.563,0,0,1,7.425,0A9.437,9.437,0,0,1,20.75,8.287a9.563,9.563,0,0,1,0,7.425,9.435,9.435,0,0,1-5.037,5.038A9.27,9.27,0,0,1,12,21.5Z" transform="translate(0 0.5)"/>
</svg>
