<svg id="Icon_Transaction_" data-name="Icon (Transaction))" xmlns="http://www.w3.org/2000/svg" width="24" height="24" viewBox="0 0 24 24">
  <rect id="Прямоугольник_1219" data-name="Прямоугольник 1219" width="24" height="24" fill="#fff" opacity="0"/>
  <path id="child_care_FILL1_wght400_GRAD0_opsz24" d="M14.5,11.75a1.24,1.24,0,1,0-.887-.363A1.2,1.2,0,0,0,14.5,11.75Zm-5,0a1.24,1.24,0,1,0-.887-.363A1.2,1.2,0,0,0,9.5,11.75ZM12,17a4.715,4.715,0,0,0,2.713-.825A4.9,4.9,0,0,0,16.5,14h-9a4.9,4.9,0,0,0,1.788,2.175A4.711,4.711,0,0,0,12,17Zm0,4a8.709,8.709,0,0,1-3.512-.712,9.055,9.055,0,0,1-4.776-4.776A8.709,8.709,0,0,1,3,12a8.716,8.716,0,0,1,.712-3.513A9.048,9.048,0,0,1,8.488,3.712,8.709,8.709,0,0,1,12,3a8.716,8.716,0,0,1,3.513.712,9.042,9.042,0,0,1,4.775,4.775A8.716,8.716,0,0,1,21,12a8.709,8.709,0,0,1-.712,3.512,9.048,9.048,0,0,1-4.775,4.776A8.716,8.716,0,0,1,12,21Zm.4-12.5a3.363,3.363,0,0,0,.963-.163A.7.7,0,0,0,13.9,7.6a.766.766,0,0,0-.2-.525.641.641,0,0,0-.5-.225,1.038,1.038,0,0,0-.388.075A1.1,1.1,0,0,1,12.4,7a1.238,1.238,0,0,1-1.25-1.25,1.089,1.089,0,0,1,.088-.463.5.5,0,0,1,.262-.262q-.475.05-.925.125A4.032,4.032,0,0,0,9.7,5.4a.893.893,0,0,0-.037.175,1.38,1.38,0,0,0-.013.175,2.646,2.646,0,0,0,.813,1.938A2.644,2.644,0,0,0,12.4,8.5Z"/>
</svg>
