<svg id="Icon_Transaction_" data-name="Icon (Transaction))" xmlns="http://www.w3.org/2000/svg" width="24" height="24" viewBox="0 0 24 24">
  <rect id="Прямоугольник_1219" data-name="Прямоугольник 1219" width="24" height="24" fill="#fff" opacity="0"/>
  <path id="school_FILL1_wght400_GRAD0_opsz24" d="M22,17a.984.984,0,0,1-1-1V10.1l-8.025,4.375a2,2,0,0,1-1.95,0L2.6,9.875a.9.9,0,0,1-.387-.363,1.019,1.019,0,0,1,0-1.024A.9.9,0,0,1,2.6,8.125l8.45-4.6a2.015,2.015,0,0,1,.462-.188,1.952,1.952,0,0,1,.976,0,2.015,2.015,0,0,1,.462.188l9.525,5.2a.909.909,0,0,1,.388.362A1.011,1.011,0,0,1,23,9.6V16a.984.984,0,0,1-1,1ZM12,20.725a1.928,1.928,0,0,1-.488-.062,2.015,2.015,0,0,1-.462-.188l-5-2.7A1.968,1.968,0,0,1,5,16V12.2l5.675,3.075q.325.175.65.312a1.71,1.71,0,0,0,.675.138,1.681,1.681,0,0,0,.688-.15q.337-.15.662-.325L19,12.2V16a1.968,1.968,0,0,1-1.05,1.775l-5,2.7a2.015,2.015,0,0,1-.462.188,1.928,1.928,0,0,1-.488.062Z" transform="translate(-0.537)"/>
</svg>
