<svg id="Icon_Transaction_" data-name="Icon (Transaction))" xmlns="http://www.w3.org/2000/svg" width="24" height="24" viewBox="0 0 24 24">
  <rect id="Прямоугольник_1219" data-name="Прямоугольник 1219" width="24" height="24" fill="#fff" opacity="0"/>
  <path id="inventory_2_FILL1_wght300_GRAD0_opsz24" d="M3.5,19.7V8.775a1.94,1.94,0,0,1-.7-.613A1.591,1.591,0,0,1,2.5,7.2V4.8A1.793,1.793,0,0,1,4.3,3H19.7a1.793,1.793,0,0,1,1.8,1.8V7.2a1.591,1.591,0,0,1-.3.962,1.94,1.94,0,0,1-.7.613V19.7a1.793,1.793,0,0,1-1.8,1.8H5.3a1.793,1.793,0,0,1-1.8-1.8ZM19.7,7.5a.3.3,0,0,0,.3-.3V4.8a.3.3,0,0,0-.3-.3H4.3a.3.3,0,0,0-.3.3V7.2a.3.3,0,0,0,.3.3ZM9.2,13.7h5.6V12.2H9.2Z" transform="translate(0 -0.25)"/>
</svg>
