<svg id="Icon_Transaction_" data-name="Icon (Transaction))" xmlns="http://www.w3.org/2000/svg" width="24" height="24" viewBox="0 0 24 24">
  <rect id="Прямоугольник_1219" data-name="Прямоугольник 1219" width="24" height="24" fill="#fff" opacity="0"/>
  <path id="sports_basketball_FILL1_wght400_GRAD0_opsz24" d="M2.05,10.975a10.272,10.272,0,0,1,.525-2.413,8.809,8.809,0,0,1,1.1-2.137A8.173,8.173,0,0,1,5.138,8.512,7.978,7.978,0,0,1,5.9,10.975Zm16.05,0a8.023,8.023,0,0,1,.75-2.45A7.692,7.692,0,0,1,20.325,6.45a8.3,8.3,0,0,1,1.1,2.125,10.441,10.441,0,0,1,.525,2.4ZM3.675,17.55a8.359,8.359,0,0,1-1.1-2.112,10.272,10.272,0,0,1-.525-2.413H5.9a7.832,7.832,0,0,1-.762,2.45A8.248,8.248,0,0,1,3.675,17.55Zm16.65,0a7.692,7.692,0,0,1-1.475-2.075,8.023,8.023,0,0,1-.75-2.45h3.85a10.441,10.441,0,0,1-.525,2.4A8.3,8.3,0,0,1,20.325,17.55Zm-12.4-6.575A9.618,9.618,0,0,0,6.95,7.65,10.476,10.476,0,0,0,4.925,4.9,9.681,9.681,0,0,1,7.663,2.975a10.448,10.448,0,0,1,3.312-.925v8.925Zm5.1,0V2.05a10.448,10.448,0,0,1,3.312.925A9.681,9.681,0,0,1,19.075,4.9a9.575,9.575,0,0,0-2.037,2.737,9.911,9.911,0,0,0-.963,3.338ZM10.975,21.95a10.144,10.144,0,0,1-3.325-.938,9.951,9.951,0,0,1-2.725-1.937A9.65,9.65,0,0,0,6.963,16.35a9.8,9.8,0,0,0,.962-3.325h3.05Zm2.05,0V13.025h3.05a9.9,9.9,0,0,0,.963,3.337A9.57,9.57,0,0,0,19.075,19.1a9.681,9.681,0,0,1-2.738,1.925,10.448,10.448,0,0,1-3.312.925Z"/>
</svg>
