<svg id="Icon_Transaction_" data-name="Icon (Transaction))" xmlns="http://www.w3.org/2000/svg" width="24" height="24" viewBox="0 0 24 24">
  <rect id="Прямоугольник_1219" data-name="Прямоугольник 1219" width="24" height="24" fill="#fff" opacity="0"/>
  <path id="mail_FILL1_wght300_GRAD0_opsz24" d="M4.3,19.5a1.793,1.793,0,0,1-1.8-1.8V6.3A1.793,1.793,0,0,1,4.3,4.5H19.7a1.793,1.793,0,0,1,1.8,1.8V17.7a1.793,1.793,0,0,1-1.8,1.8ZM12,12.4a.856.856,0,0,0,.25-.038.7.7,0,0,0,.225-.112L19.65,7.675a.611.611,0,0,0,.225-.275.643.643,0,0,0,.05-.35.621.621,0,0,0-.337-.525.591.591,0,0,0-.638.025L12,11,5.05,6.55a.59.59,0,0,0-.637-.025.6.6,0,0,0-.338.5.711.711,0,0,0,.05.375.611.611,0,0,0,.225.275l7.175,4.575a.7.7,0,0,0,.225.112A.856.856,0,0,0,12,12.4Z" transform="translate(0 0.5)"/>
</svg>
