<svg id="Icon_Transaction_" data-name="Icon (Transaction))" xmlns="http://www.w3.org/2000/svg" width="24" height="24" viewBox="0 0 24 24">
  <rect id="Прямоугольник_1219" data-name="Прямоугольник 1219" width="24" height="24" fill="#fff" opacity="0"/>
  <path id="water_drop_FILL1_wght300_GRAD0_opsz24" d="M12.25,18.85a.679.679,0,0,0,.425-.2.551.551,0,0,0,.175-.4.578.578,0,0,0-.187-.462.594.594,0,0,0-.463-.138,4.027,4.027,0,0,1-2.237-.6A3.137,3.137,0,0,1,8.45,14.7a.72.72,0,0,0-.212-.4.553.553,0,0,0-.388-.15.592.592,0,0,0-.462.212.535.535,0,0,0-.113.513A4.288,4.288,0,0,0,9.238,18a5.353,5.353,0,0,0,3.012.85ZM12,21.5a7.165,7.165,0,0,1-5.362-2.2A7.577,7.577,0,0,1,4.5,13.8,9.357,9.357,0,0,1,6.362,8.7,32.129,32.129,0,0,1,12,2.65,32.1,32.1,0,0,1,17.637,8.7,9.354,9.354,0,0,1,19.5,13.8a7.579,7.579,0,0,1-2.137,5.5A7.168,7.168,0,0,1,12,21.5Z" transform="translate(0 -0.075)"/>
</svg>
