<svg id="Icon_Transaction_" data-name="Icon (Transaction))" xmlns="http://www.w3.org/2000/svg" width="24" height="24" viewBox="0 0 24 24">
  <rect id="Прямоугольник_1219" data-name="Прямоугольник 1219" width="24" height="24" fill="#fff" opacity="0"/>
  <path id="public_FILL1_wght300_GRAD0_opsz24" d="M12,21.5a9.263,9.263,0,0,1-3.712-.75A9.432,9.432,0,0,1,3.25,15.712a9.563,9.563,0,0,1,0-7.425A9.435,9.435,0,0,1,8.288,3.25a9.563,9.563,0,0,1,7.425,0A9.437,9.437,0,0,1,20.75,8.287a9.563,9.563,0,0,1,0,7.425,9.435,9.435,0,0,1-5.037,5.038A9.27,9.27,0,0,1,12,21.5Zm-1-1.55V18a2.006,2.006,0,0,1-2-2V15L4.2,10.2q-.075.45-.138.9A6.587,6.587,0,0,0,4,12a7.806,7.806,0,0,0,1.988,5.3A7.694,7.694,0,0,0,11,19.95Zm6.9-2.55a8.377,8.377,0,0,0,.9-1.188,7.57,7.57,0,0,0,.663-1.325,8.322,8.322,0,0,0,.4-1.412,8.06,8.06,0,0,0-1.225-5.963A7.681,7.681,0,0,0,15,4.575V5a2.006,2.006,0,0,1-2,2H11V9a.982.982,0,0,1-1,1H8v2h6a.981.981,0,0,1,1,1v3h1a1.932,1.932,0,0,1,1.175.387A1.979,1.979,0,0,1,17.9,17.4Z" transform="translate(0 0.5)"/>
</svg>
