<svg id="Icon_Transaction_" data-name="Icon (Transaction))" xmlns="http://www.w3.org/2000/svg" width="24" height="24" viewBox="0 0 24 24">
  <rect id="Прямоугольник_1219" data-name="Прямоугольник 1219" width="24" height="24" fill="#fff" opacity="0"/>
  <path id="devices_FILL1_wght400_GRAD0_opsz24" d="M4,17V6A2.008,2.008,0,0,1,6,4H20a.982.982,0,0,1,1,1,.982.982,0,0,1-1,1H6V17h4.5a1.5,1.5,0,1,1,0,3h-7a1.5,1.5,0,1,1,0-3Zm11,3a.984.984,0,0,1-1-1V9a.982.982,0,0,1,1-1h6a.982.982,0,0,1,1,1V19a.984.984,0,0,1-1,1Zm1-3h4V10H16Z"/>
</svg>
