<svg id="Icon_Transaction_" data-name="Icon (Transaction))" xmlns="http://www.w3.org/2000/svg" width="24" height="24" viewBox="0 0 24 24">
  <rect id="Прямоугольник_1219" data-name="Прямоугольник 1219" width="24" height="24" fill="#fff" opacity="0"/>
  <path id="groups_FILL1_wght300_GRAD0_opsz24" d="M.5,17.8V16.575a1.873,1.873,0,0,1,1.038-1.65A5.2,5.2,0,0,1,4.25,14.3q.3,0,.575.025a4.973,4.973,0,0,1,.525.075,3.294,3.294,0,0,0-.412.925A4.027,4.027,0,0,0,4.8,16.4v1.4Zm6,0V16.45a2.622,2.622,0,0,1,1.512-2.325A7.925,7.925,0,0,1,12,13.25a7.925,7.925,0,0,1,3.988.875A2.622,2.622,0,0,1,17.5,16.45V17.8Zm12.7,0V16.4a3.724,3.724,0,0,0-.15-1.075,4.192,4.192,0,0,0-.4-.925,4.973,4.973,0,0,1,.525-.075q.275-.025.575-.025a5.2,5.2,0,0,1,2.712.625,1.873,1.873,0,0,1,1.038,1.65V17.8ZM4.25,13.325a1.707,1.707,0,0,1-1.7-1.7,1.666,1.666,0,0,1,.5-1.225,1.637,1.637,0,0,1,1.2-.5,1.637,1.637,0,0,1,1.2.5,1.666,1.666,0,0,1,.5,1.225,1.707,1.707,0,0,1-1.7,1.7Zm15.5,0a1.707,1.707,0,0,1-1.7-1.7,1.666,1.666,0,0,1,.5-1.225,1.69,1.69,0,0,1,2.4,0,1.666,1.666,0,0,1,.5,1.225,1.707,1.707,0,0,1-1.7,1.7ZM12,12.5A2.6,2.6,0,0,1,9.4,9.9,2.6,2.6,0,0,1,12,7.3a2.6,2.6,0,0,1,2.6,2.6A2.6,2.6,0,0,1,12,12.5Z" transform="translate(0 -0.551)"/>
</svg>
