<svg id="Icon_Transaction_" data-name="Icon (Transaction))" xmlns="http://www.w3.org/2000/svg" width="24" height="24" viewBox="0 0 24 24">
  <rect id="Прямоугольник_1219" data-name="Прямоугольник 1219" width="24" height="24" fill="#fff" opacity="0"/>
  <path id="auto_stories_FILL1_wght300_GRAD0_opsz24" d="M11.975,19.375a9.576,9.576,0,0,0-2.588-1.387A8.635,8.635,0,0,0,6.5,17.5a8.053,8.053,0,0,0-1.8.2,7.943,7.943,0,0,0-1.7.6.966.966,0,0,1-1.012-.075,1.025,1.025,0,0,1-.488-.9V6.475A1.041,1.041,0,0,1,2.15,5.5a9.228,9.228,0,0,1,2.113-.75A10.169,10.169,0,0,1,6.5,4.5a9.922,9.922,0,0,1,2.838.412A11.975,11.975,0,0,1,12,6.075V17.55a9.768,9.768,0,0,1,2.675-1.175A10.874,10.874,0,0,1,17.5,16a10,10,0,0,1,1.562.113A12.836,12.836,0,0,1,20.7,16.5a.457.457,0,0,0,.213,0q.087-.025.087-.15V5.125q.25.075.5.162a2.744,2.744,0,0,1,.5.238.832.832,0,0,1,.375.362A1.087,1.087,0,0,1,22.5,6.4V17.3a1.01,1.01,0,0,1-.5.912,1.05,1.05,0,0,1-1.05.063,8.966,8.966,0,0,0-1.687-.575,7.783,7.783,0,0,0-1.763-.2,9.073,9.073,0,0,0-2.912.475,8.9,8.9,0,0,0-2.613,1.4ZM14,15V6l5-5v9.5Z" transform="translate(0 1.813)"/>
</svg>
