<svg id="Icon_Transaction_" data-name="Icon (Transaction))" xmlns="http://www.w3.org/2000/svg" width="24" height="24" viewBox="0 0 24 24">
  <rect id="Прямоугольник_1219" data-name="Прямоугольник 1219" width="24" height="24" fill="#fff" opacity="0"/>
  <path id="person_FILL1_wght300_GRAD0_opsz24" d="M12,11.7a3.351,3.351,0,0,1-2.475-1.038A3.383,3.383,0,0,1,8.5,8.2,3.5,3.5,0,0,1,12,4.7a3.5,3.5,0,0,1,3.5,3.5,3.383,3.383,0,0,1-1.025,2.462A3.351,3.351,0,0,1,12,11.7ZM4.5,19.3V17.075a2.458,2.458,0,0,1,.4-1.35,2.76,2.76,0,0,1,1.075-.975,14.358,14.358,0,0,1,2.988-1.088,12.925,12.925,0,0,1,6.075,0,14.364,14.364,0,0,1,2.987,1.088,2.76,2.76,0,0,1,1.075.975,2.458,2.458,0,0,1,.4,1.35V19.3Z"/>
</svg>
