<svg id="Icon_Transaction_" data-name="Icon (Transaction))" xmlns="http://www.w3.org/2000/svg" width="24" height="24" viewBox="0 0 24 24">
  <rect id="Прямоугольник_1219" data-name="Прямоугольник 1219" width="24" height="24" fill="#fff" opacity="0"/>
  <path id="help_FILL1_wght400_GRAD0_opsz24" d="M11.95,18a1.238,1.238,0,1,0-.888-.363A1.208,1.208,0,0,0,11.95,18ZM12.1,7.7a1.606,1.606,0,0,1,1.125.387A1.307,1.307,0,0,1,13.65,9.1a1.566,1.566,0,0,1-.287.862,4.895,4.895,0,0,1-.813.913,5.178,5.178,0,0,0-1.1,1.25,2.364,2.364,0,0,0-.35,1.2.759.759,0,0,0,.263.587.881.881,0,0,0,.612.238.9.9,0,0,0,.625-.25,1.118,1.118,0,0,0,.35-.625,1.881,1.881,0,0,1,.338-.787,7.535,7.535,0,0,1,.862-.938,5.259,5.259,0,0,0,1.088-1.325A2.828,2.828,0,0,0,15.55,8.9a2.61,2.61,0,0,0-.962-2.088A3.728,3.728,0,0,0,12.1,6a4.161,4.161,0,0,0-1.862.4A2.844,2.844,0,0,0,8.975,7.625a.991.991,0,0,0-.125.637.746.746,0,0,0,.35.513.965.965,0,0,0,.713.125,1,1,0,0,0,.637-.425A1.832,1.832,0,0,1,12.1,7.7ZM12,22a9.671,9.671,0,0,1-3.875-.788,10.238,10.238,0,0,1-3.187-2.137A9.983,9.983,0,0,1,2.788,15.9,9.732,9.732,0,0,1,2,12a9.732,9.732,0,0,1,.788-3.9,9.983,9.983,0,0,1,2.15-3.175A10.252,10.252,0,0,1,8.125,2.787,9.681,9.681,0,0,1,12,2a9.805,9.805,0,0,1,3.925.787A10.106,10.106,0,0,1,19.1,4.925,9.967,9.967,0,0,1,22,12a9.967,9.967,0,0,1-2.9,7.075,10.092,10.092,0,0,1-3.175,2.137A9.794,9.794,0,0,1,12,22Z"/>
</svg>
