<svg id="Icon_Transaction_" data-name="Icon (Transaction))" xmlns="http://www.w3.org/2000/svg" width="24" height="24" viewBox="0 0 24 24">
  <rect id="Прямоугольник_1219" data-name="Прямоугольник 1219" width="24" height="24" fill="#fff" opacity="0"/>
  <path id="hotel_FILL1_wght300_GRAD0_opsz24" d="M1.5,18.5V4.5H3V14h8.25V6.5H19A3.5,3.5,0,0,1,22.5,10v8.5H21v-3H3v3ZM7,12.55A2.52,2.52,0,0,1,4.45,10,2.52,2.52,0,0,1,7,7.45,2.52,2.52,0,0,1,9.55,10,2.52,2.52,0,0,1,7,12.55ZM12.75,14H21V10a2,2,0,0,0-2-2H12.75ZM7,11.05a1.025,1.025,0,1,0-.75-.3A1.018,1.018,0,0,0,7,11.05Zm0,0a1.025,1.025,0,1,1,.75-.3A1.018,1.018,0,0,1,7,11.05ZM12.75,8H19a2,2,0,0,1,2,2v4H12.75Z" transform="translate(0 0.5)"/>
</svg>
