<svg id="Icon_Transaction_" data-name="Icon (Transaction))" xmlns="http://www.w3.org/2000/svg" width="24" height="24" viewBox="0 0 24 24">
  <rect id="Прямоугольник_1219" data-name="Прямоугольник 1219" width="24" height="24" fill="#fff" opacity="0"/>
  <path id="workspace_premium_FILL1_wght300_GRAD0_opsz24" d="M9.8,13.5l.825-2.725L8.45,9.1h2.7L12,6.4l.85,2.7h2.7l-2.2,1.675.825,2.725L12,11.8ZM6.5,22.225v-7.15a7.247,7.247,0,0,1-1.475-2.3A7.34,7.34,0,0,1,4.5,10,7.242,7.242,0,0,1,6.675,4.675,7.242,7.242,0,0,1,12,2.5a7.242,7.242,0,0,1,5.325,2.175A7.242,7.242,0,0,1,19.5,10a7.34,7.34,0,0,1-.525,2.775,7.247,7.247,0,0,1-1.475,2.3v7.15L12,20.475ZM12,16a5.786,5.786,0,0,0,4.25-1.75A5.786,5.786,0,0,0,18,10a5.786,5.786,0,0,0-1.75-4.25A5.786,5.786,0,0,0,12,4,5.786,5.786,0,0,0,7.75,5.75,5.786,5.786,0,0,0,6,10a5.786,5.786,0,0,0,1.75,4.25A5.786,5.786,0,0,0,12,16Z" transform="translate(0 -0.362)"/>
</svg>
