<svg id="Icon_Transaction_" data-name="Icon (Transaction))" xmlns="http://www.w3.org/2000/svg" width="24" height="24" viewBox="0 0 24 24">
  <rect id="Прямоугольник_1219" data-name="Прямоугольник 1219" width="24" height="24" fill="#fff" opacity="0"/>
  <path id="lunch_dining_FILL1_wght300_GRAD0_opsz24" d="M2.5,10V9.2A4.5,4.5,0,0,1,4.9,5.137Q7.3,3.7,12,3.7t7.1,1.437A4.5,4.5,0,0,1,21.5,9.2V10Zm0,4.25v-1.5a1.893,1.893,0,0,0,1.4-.5,2.483,2.483,0,0,1,1.775-.5,2.436,2.436,0,0,1,1.763.5,1.848,1.848,0,0,0,1.387.5,1.893,1.893,0,0,0,1.4-.5A2.483,2.483,0,0,1,12,11.75a2.483,2.483,0,0,1,1.775.5,1.893,1.893,0,0,0,1.4.5,1.807,1.807,0,0,0,1.375-.5,2.386,2.386,0,0,1,1.75-.5,2.681,2.681,0,0,1,1.838.5,1.92,1.92,0,0,0,1.362.5v1.5a2.336,2.336,0,0,1-1.737-.5,1.767,1.767,0,0,0-1.363-.5,1.989,1.989,0,0,0-1.412.5,2.636,2.636,0,0,1-1.813.5,2.483,2.483,0,0,1-1.775-.5,1.893,1.893,0,0,0-1.4-.5,1.893,1.893,0,0,0-1.4.5,2.483,2.483,0,0,1-1.775.5,2.436,2.436,0,0,1-1.763-.5,1.848,1.848,0,0,0-1.387-.5,1.893,1.893,0,0,0-1.4.5,2.483,2.483,0,0,1-1.775.5ZM4.3,20.5a1.793,1.793,0,0,1-1.8-1.8V16h19v2.7a1.793,1.793,0,0,1-1.8,1.8Z" transform="translate(0 -0.1)"/>
</svg>
