<svg id="Icon_Transaction_" data-name="Icon (Transaction))" xmlns="http://www.w3.org/2000/svg" width="24" height="24" viewBox="0 0 24 24">
  <rect id="Прямоугольник_1219" data-name="Прямоугольник 1219" width="24" height="24" fill="#fff" opacity="0"/>
  <path id="emoji_objects_FILL1_wght300_GRAD0_opsz24" d="M12,20.95a1.8,1.8,0,0,1-1.062-.325A1.665,1.665,0,0,1,10.3,19.8H10a1.425,1.425,0,0,1-1.062-.45A1.458,1.458,0,0,1,8.5,18.3V15a6.417,6.417,0,0,1-2.387-2.45,6.68,6.68,0,0,1-.863-3.3A6.512,6.512,0,0,1,7.213,4.463,6.512,6.512,0,0,1,12,2.5a6.515,6.515,0,0,1,4.788,1.963A6.513,6.513,0,0,1,18.75,9.25a6.643,6.643,0,0,1-.862,3.325A6.477,6.477,0,0,1,15.5,15v3.3a1.458,1.458,0,0,1-.438,1.05A1.425,1.425,0,0,1,14,19.8h-.3a1.665,1.665,0,0,1-.638.825A1.8,1.8,0,0,1,12,20.95ZM10,18.3h4v-.95H10Zm0-1.825h4V15.5H10ZM12.6,14V11.1l2.15-2.15L13.9,8.1,12,10,10.1,8.1l-.85.85L11.4,11.1V14Z" transform="translate(0 0.275)"/>
</svg>
