<svg id="Icon_Transaction_" data-name="Icon (Transaction))" xmlns="http://www.w3.org/2000/svg" width="24" height="24" viewBox="0 0 24 24">
  <rect id="Прямоугольник_1219" data-name="Прямоугольник 1219" width="24" height="24" fill="#fff" opacity="0"/>
  <path id="checkroom_FILL1_wght400_GRAD0_opsz24" d="M3,20a.915.915,0,0,1-.95-.688A.912.912,0,0,1,2.4,18.2L11,11.75V10a.993.993,0,0,1,.275-.713.928.928,0,0,1,.7-.287,1.393,1.393,0,0,0,1.087-.413,1.554,1.554,0,0,0,.013-2.149A1.4,1.4,0,0,0,12.025,6a1.464,1.464,0,0,0-.837.262,1.511,1.511,0,0,0-.563.688.878.878,0,0,1-.363.412,1.047,1.047,0,0,1-.537.138.928.928,0,0,1-.838-.463.969.969,0,0,1-.062-.962A3.48,3.48,0,0,1,10.1,4.562,3.37,3.37,0,0,1,12,4a3.415,3.415,0,0,1,2.475,1A3.291,3.291,0,0,1,15.5,7.45a3.427,3.427,0,0,1-.7,2.125A3.561,3.561,0,0,1,13,10.85v.9l8.6,6.45A1,1,0,0,1,21,20Zm3-2H18l-6-4.5Z" transform="translate(0.013)"/>
</svg>
