<svg id="Icon_Transaction_" data-name="Icon (Transaction))" xmlns="http://www.w3.org/2000/svg" width="24" height="24" viewBox="0 0 24 24">
  <rect id="Прямоугольник_1219" data-name="Прямоугольник 1219" width="24" height="24" fill="#fff" opacity="0"/>
  <path id="two_wheeler_FILL1_wght300_GRAD0_opsz24" d="M4,18.75a3.612,3.612,0,0,1-2.65-1.1,3.738,3.738,0,0,1-.162-5.125A3.66,3.66,0,0,1,3.55,11.3H3.9l-1.15-.95H.25V9.15H4.275l2.7,1.625L11.05,9.25h3.625l-1.95-2.5H10.25V5.25h3.175l2,2.55,3.15-1.4V8.775H16.2L18.4,11.6a3.715,3.715,0,0,1,.775-.263A3.871,3.871,0,0,1,20,11.25,3.756,3.756,0,0,1,23.75,15a3.748,3.748,0,0,1-6.4,2.65A3.612,3.612,0,0,1,16.25,15a3.381,3.381,0,0,1,.263-1.325,4.331,4.331,0,0,1,.712-1.15l-.85-1.075-3.5,5.3H10.1L7.75,14.7v.45A3.684,3.684,0,0,1,6.588,17.7,3.6,3.6,0,0,1,4,18.75Zm0-1.5A2.263,2.263,0,0,0,5.6,13.4,2.175,2.175,0,0,0,4,12.75,2.263,2.263,0,0,0,2.4,16.6,2.175,2.175,0,0,0,4,17.25Zm16,0a2.263,2.263,0,0,0,1.6-3.85,2.263,2.263,0,0,0-3.2,3.2A2.175,2.175,0,0,0,20,17.25Z"/>
</svg>
