<svg id="Icon_Transaction_" data-name="Icon (Transaction))" xmlns="http://www.w3.org/2000/svg" width="24" height="24" viewBox="0 0 24 24">
  <rect id="Прямоугольник_1219" data-name="Прямоугольник 1219" width="24" height="24" fill="#fff" opacity="0"/>
  <path id="backpack_FILL1_wght300_GRAD0_opsz24" d="M6.3,21.55a1.793,1.793,0,0,1-1.8-1.8V8a3.564,3.564,0,0,1,.85-2.363A3.744,3.744,0,0,1,7.5,4.35V2.25H10v2h4v-2h2.5v2.1a3.744,3.744,0,0,1,2.15,1.287A3.564,3.564,0,0,1,19.5,8V19.75a1.793,1.793,0,0,1-1.8,1.8Zm8.5-5.8h1.5v-3.5H7.7v1.5h7.1Z" transform="translate(0 0.1)"/>
</svg>
