<svg id="Icon_Transaction_" data-name="Icon (Transaction))" xmlns="http://www.w3.org/2000/svg" width="24" height="24" viewBox="0 0 24 24">
  <rect id="Прямоугольник_1219" data-name="Прямоугольник 1219" width="24" height="24" fill="#fff" opacity="0"/>
  <path id="garden_cart_FILL1_wght300_GRAD0_opsz24" d="M7.35,19.95a1.754,1.754,0,0,1-1.325-.55A1.85,1.85,0,0,1,5.5,18.075V9.35L3.75,5.2H1.725V3.7h3.05L6.35,7.5H20.3a.86.86,0,0,1,.788.438.832.832,0,0,1,.012.887l-2.625,5.15a3,3,0,0,1,1.775,5.1,3,3,0,0,1-4.238,0,2.915,2.915,0,0,1-.862-2.125,2.744,2.744,0,0,1,.55-1.7l-3.975-.35-2.75,4.125a2.048,2.048,0,0,1-.712.675,1.817,1.817,0,0,1-.913.25Zm0-1.525q.125,0,.375-.25l2.3-3.425a4.1,4.1,0,0,1-1.775-.562A3.122,3.122,0,0,1,7.225,13.15L7,12.625v5.45a.329.329,0,0,0,.1.262.365.365,0,0,0,.25.088Zm10.775.025a1.434,1.434,0,0,0,1.075-.438,1.512,1.512,0,0,0-2.138-2.137,1.507,1.507,0,0,0,1.063,2.575Z" transform="translate(0.526 0.175)"/>
</svg>
