<svg id="Icon_Transaction_" data-name="Icon (Transaction))" xmlns="http://www.w3.org/2000/svg" width="24" height="24" viewBox="0 0 24 24">
  <rect id="Прямоугольник_1219" data-name="Прямоугольник 1219" width="24" height="24" fill="#fff" opacity="0"/>
  <path id="redeem_FILL0_wght300_GRAD0_opsz24" d="M4,16.8v1.9a.3.3,0,0,0,.3.3H19.7a.3.3,0,0,0,.3-.3V16.8Zm.3,3.7a1.793,1.793,0,0,1-1.8-1.8V8.325a1.793,1.793,0,0,1,1.8-1.8H7.075a1.931,1.931,0,0,1-.187-.475,2.141,2.141,0,0,1-.063-.525,2.476,2.476,0,0,1,2.5-2.5,2.209,2.209,0,0,1,1.163.325,3.764,3.764,0,0,1,.937.8l.55.75.575-.75a3.044,3.044,0,0,1,.913-.813,2.273,2.273,0,0,1,1.162-.312,2.476,2.476,0,0,1,2.5,2.5,2.672,2.672,0,0,1-.05.525,1.316,1.316,0,0,1-.2.475H19.7a1.793,1.793,0,0,1,1.8,1.8V18.7a1.793,1.793,0,0,1-1.8,1.8ZM4,14.2H20V8.325a.3.3,0,0,0-.3-.3H14.225L15.85,10.25a.542.542,0,0,1,.1.5,1.235,1.235,0,0,1-.275.5.719.719,0,0,1-.55.125.7.7,0,0,1-.475-.3l-2.675-3.6L9.3,11.1a.713.713,0,0,1-.5.312.569.569,0,0,1-.5-.162.713.713,0,0,1-.312-.5.682.682,0,0,1,.137-.525L9.7,8.025H4.3a.3.3,0,0,0-.3.3ZM9.325,6.525a.982.982,0,0,0,1-1,1,1,0,1,0-1.712.712A.965.965,0,0,0,9.325,6.525Zm5.3,0a.982.982,0,0,0,1-1,1,1,0,1,0-1.712.712A.965.965,0,0,0,14.625,6.525Z" transform="translate(0 0.238)"/>
</svg>
