<svg id="Icon_Transaction_" data-name="Icon (Transaction))" xmlns="http://www.w3.org/2000/svg" width="24" height="24" viewBox="0 0 24 24">
  <rect id="Прямоугольник_1219" data-name="Прямоугольник 1219" width="24" height="24" fill="#fff" opacity="0"/>
  <path id="potted_plant_FILL1_wght300_GRAD0_opsz24" d="M8.85,21.5a1.742,1.742,0,0,1-1.113-.387,1.785,1.785,0,0,1-.637-.988l-1.075-4.25h11.95L16.9,20.125a1.783,1.783,0,0,1-.638.988,1.738,1.738,0,0,1-1.112.387ZM12,8.325a5.53,5.53,0,0,1,1.663-3.788A5.528,5.528,0,0,1,17.45,2.875a5.476,5.476,0,0,1-1.412,3.55,5.627,5.627,0,0,1-3.288,1.85V10.5h7.575v2.675a1.793,1.793,0,0,1-1.8,1.8H5.5a1.793,1.793,0,0,1-1.8-1.8V10.5h7.55V8.275a5.623,5.623,0,0,1-3.287-1.85A5.474,5.474,0,0,1,6.55,2.875a5.532,5.532,0,0,1,3.788,1.662A5.532,5.532,0,0,1,12,8.325Z" transform="translate(-0.012 -0.188)"/>
</svg>
