<svg id="Icon_Transaction_" data-name="Icon (Transaction))" xmlns="http://www.w3.org/2000/svg" width="24" height="24" viewBox="0 0 24 24">
  <rect id="Прямоугольник_1219" data-name="Прямоугольник 1219" width="24" height="24" fill="#fff" opacity="0"/>
  <path id="savings_FILL1_wght300_GRAD0_opsz24" d="M16,10.875a.854.854,0,1,0-.625-.25A.848.848,0,0,0,16,10.875ZM8,8.75h5V7.25H8ZM4.875,20.5q-.8-2.725-1.587-5.438A19.834,19.834,0,0,1,2.5,9.5a4.951,4.951,0,0,1,5-5h5.25a5.339,5.339,0,0,1,1.638-1.45A4.181,4.181,0,0,1,16.5,2.5a.967.967,0,0,1,.712.287.939.939,0,0,1,.288.688,1.608,1.608,0,0,1-.1.475q-.125.35-.225.712T17,5.4L19.625,8H21.5v6.1l-2.725.9-1.65,5.5H12.5v-2h-3v2Z" transform="translate(0.5 0.5)"/>
</svg>
