<svg id="Icon_Transaction_" data-name="Icon (Transaction))" xmlns="http://www.w3.org/2000/svg" width="24" height="24" viewBox="0 0 24 24">
  <rect id="Прямоугольник_1219" data-name="Прямоугольник 1219" width="24" height="24" fill="#fff" opacity="0"/>
  <path id="directions_bus_FILL1_wght400_GRAD0_opsz24_1_" data-name="directions_bus_FILL1_wght400_GRAD0_opsz24 (1)" d="M6.5,21A1.5,1.5,0,0,1,5,19.5V17.95a4.261,4.261,0,0,1-.725-1.113A3.224,3.224,0,0,1,4,15.5V6A3.189,3.189,0,0,1,5.925,2.962,14.339,14.339,0,0,1,12,2a14.78,14.78,0,0,1,6.15.925A3.181,3.181,0,0,1,20,6v9.5a3.224,3.224,0,0,1-.275,1.337A4.261,4.261,0,0,1,19,17.95V19.5a1.5,1.5,0,1,1-3,0V19H8v.5A1.5,1.5,0,0,1,6.5,21ZM6,10H18V7H6Zm2.5,6a1.5,1.5,0,1,0-1.062-.438A1.444,1.444,0,0,0,8.5,16Zm7,0a1.5,1.5,0,1,0-1.062-.438A1.444,1.444,0,0,0,15.5,16Z" transform="translate(0 1)"/>
</svg>
