<svg id="Icon_Transaction_" data-name="Icon (Transaction))" xmlns="http://www.w3.org/2000/svg" width="24" height="24" viewBox="0 0 24 24">
  <rect id="Прямоугольник_1219" data-name="Прямоугольник 1219" width="24" height="24" fill="#fff" opacity="0"/>
  <path id="terminal_FILL1_wght300_GRAD0_opsz24" d="M4.3,19.5a1.793,1.793,0,0,1-1.8-1.8V6.3A1.793,1.793,0,0,1,4.3,4.5H19.7a1.793,1.793,0,0,1,1.8,1.8V17.7a1.793,1.793,0,0,1-1.8,1.8Zm0-1.5H19.7a.354.354,0,0,0,.3-.3V8H4v9.7a.354.354,0,0,0,.3.3Zm3.2-1.35L6.45,15.6,9.025,13l-2.6-2.6L7.5,9.35,11.15,13Zm4.75.1v-1.5h5.5v1.5Z" transform="translate(0.5 0.5)"/>
</svg>
