<svg id="Icon_Transaction_" data-name="Icon (Transaction))" xmlns="http://www.w3.org/2000/svg" width="24" height="24" viewBox="0 0 24 24">
  <rect id="Прямоугольник_1219" data-name="Прямоугольник 1219" width="24" height="24" fill="#fff" opacity="0"/>
  <path id="recycling_FILL1_wght300_GRAD0_opsz24" d="M9.4,9.45l2.075-3.375L10.1,3.8a.883.883,0,0,0-.8-.45.828.828,0,0,0-.775.45L6.25,7.575Zm8.95,6.275-2.05-3.4,3.2-1.85,1.475,2.45a1.842,1.842,0,0,1,.275.9,1.632,1.632,0,0,1-.2.9,1.742,1.742,0,0,1-.687.725,1.9,1.9,0,0,1-.988.275ZM15.7,22.2,12,18.5l3.7-3.7v1.85h4.375L18.75,19.325a2.127,2.127,0,0,1-.712.75,1.775,1.775,0,0,1-.963.275H15.7ZM6.75,20.35a1.514,1.514,0,0,1-.825-.237,1.577,1.577,0,0,1-.575-.638,1.681,1.681,0,0,1-.162-.775,1.586,1.586,0,0,1,.212-.75l.775-1.3H10.15v3.7ZM4.475,17.725l-1.5-3a1.7,1.7,0,0,1-.2-.9,1.956,1.956,0,0,1,.275-.9l.35-.6-1.55-.95L6.9,10.1l1.275,5.075-1.6-.975Zm12.45-7.9L11.875,8.55l1.6-.95L10.6,2.8h3.25a1.747,1.747,0,0,1,.9.25,1.942,1.942,0,0,1,.675.65L16.65,5.725,18.2,4.75Z" transform="translate(0.449 -0.5)"/>
</svg>
