<svg id="Icon_Transaction_" data-name="Icon (Transaction))" xmlns="http://www.w3.org/2000/svg" width="24" height="24" viewBox="0 0 24 24">
  <rect id="Прямоугольник_1219" data-name="Прямоугольник 1219" width="24" height="24" fill="#fff" opacity="0"/>
  <path id="favorite_FILL1_wght300_GRAD0_opsz24" d="M12,20.325l-1.1-1q-2.5-2.25-4.125-3.875A28.26,28.26,0,0,1,4.2,12.562a9.091,9.091,0,0,1-1.325-2.3A6.167,6.167,0,0,1,2.5,8.15a4.911,4.911,0,0,1,5-5,5.285,5.285,0,0,1,2.475.612A5.9,5.9,0,0,1,12,5.525a5.9,5.9,0,0,1,2.025-1.763A5.285,5.285,0,0,1,16.5,3.15a4.911,4.911,0,0,1,5,5,6.167,6.167,0,0,1-.375,2.112,9.091,9.091,0,0,1-1.325,2.3,28.26,28.26,0,0,1-2.575,2.888Q15.6,17.075,13.1,19.325Z" transform="translate(0 0.262)"/>
</svg>
