<svg id="Icon_Transaction_" data-name="Icon (Transaction))" xmlns="http://www.w3.org/2000/svg" width="24" height="24" viewBox="0 0 24 24">
  <rect id="Прямоугольник_1219" data-name="Прямоугольник 1219" width="24" height="24" fill="#fff" opacity="0"/>
  <path id="smoking_rooms_FILL1_wght300_GRAD0_opsz24" d="M2.575,18.575V16.2H17.05v2.375Zm15.475,0V16.2h1.175v2.375Zm2.175,0V16.2h1.2v2.375ZM18.05,15V13.7a1.946,1.946,0,0,0-.575-1.475,1.92,1.92,0,0,0-1.375-.55H14.55a2.924,2.924,0,0,1-2.163-.9A2.985,2.985,0,0,1,11.5,8.6a2.873,2.873,0,0,1,.887-2.125A2.966,2.966,0,0,1,14.55,5.6V6.8a1.844,1.844,0,0,0-1.3.512A1.687,1.687,0,0,0,12.7,8.6a1.849,1.849,0,0,0,.55,1.338,1.759,1.759,0,0,0,1.3.562H16.1a3.115,3.115,0,0,1,2.2.863,2.776,2.776,0,0,1,.925,2.112V15Zm2.175,0V12.75a3.729,3.729,0,0,0-1.15-2.775,3.915,3.915,0,0,0-2.85-1.125V7.65A1.835,1.835,0,0,0,18.05,5.825,1.828,1.828,0,0,0,17.513,4.5a1.738,1.738,0,0,0-1.288-.55V2.775a2.882,2.882,0,0,1,2.15.9,2.977,2.977,0,0,1,.875,2.15,2.789,2.789,0,0,1-.288,1.288,3.25,3.25,0,0,1-.737.962A5.131,5.131,0,0,1,20.5,9.837a4.731,4.731,0,0,1,.925,2.913V15Z" transform="translate(0 1.325)"/>
</svg>
