<svg id="Icon_Transaction_" data-name="Icon (Transaction))" xmlns="http://www.w3.org/2000/svg" width="24" height="24" viewBox="0 0 24 24">
  <rect id="Прямоугольник_1219" data-name="Прямоугольник 1219" width="24" height="24" fill="#fff" opacity="0"/>
  <path id="palette_FILL1_wght300_GRAD0_opsz24" d="M11.975,21.5A9.117,9.117,0,0,1,8.3,20.75a9.56,9.56,0,0,1-5.05-5.062A9.209,9.209,0,0,1,2.5,12a9.013,9.013,0,0,1,.775-3.713A9.609,9.609,0,0,1,5.363,5.275,9.92,9.92,0,0,1,8.45,3.25a9.6,9.6,0,0,1,3.775-.75,9.9,9.9,0,0,1,3.55.637,9.429,9.429,0,0,1,2.95,1.775A8.571,8.571,0,0,1,20.75,7.6a7.645,7.645,0,0,1,.75,3.375,5.336,5.336,0,0,1-1.538,4.062A5.511,5.511,0,0,1,16,16.5H14.2a.9.9,0,0,0-.7.275.967.967,0,0,0-.25.675,1.607,1.607,0,0,0,.375.95A1.865,1.865,0,0,1,14,19.55a1.846,1.846,0,0,1-.55,1.475,2.179,2.179,0,0,1-1.475.475ZM6.5,12.75a1.25,1.25,0,1,0-.887-2.137A1.25,1.25,0,0,0,6.5,12.75Zm3-4a1.255,1.255,0,0,0,.887-2.138A1.255,1.255,0,0,0,8.613,8.387,1.2,1.2,0,0,0,9.5,8.75Zm5,0a1.255,1.255,0,0,0,.887-2.138,1.255,1.255,0,0,0-1.774,1.775A1.2,1.2,0,0,0,14.5,8.75Zm3,4a1.24,1.24,0,1,0-.887-.363A1.208,1.208,0,0,0,17.5,12.75Z" transform="translate(0.5 0.5)"/>
</svg>
