<svg id="Сгруппировать_3259" data-name="Сгруппировать 3259" xmlns="http://www.w3.org/2000/svg" width="20" height="20" viewBox="0 0 20 20">
  <path id="Контур_1163" data-name="Контур 1163" d="M0,0H20V20H0Z" fill="none"/>
  <path id="Контур_1164" data-name="Контур 1164" d="M2.847,6.408A7.952,7.952,0,0,1,9.959,2a7.621,7.621,0,0,1,5.325,2.084L13,6.378a4.289,4.289,0,0,0-3.043-1.2,4.745,4.745,0,0,0-4.453,3.3,4.747,4.747,0,0,0,0,3.04,4.789,4.789,0,0,0,7.148,2.534,3.681,3.681,0,0,0,1.589-2.414H9.959V8.546h7.5a9.244,9.244,0,0,1,.145,1.636,7.817,7.817,0,0,1-2.373,5.88A7.573,7.573,0,0,1,9.959,18,8.008,8.008,0,0,1,2.847,6.408Z" transform="translate(0)" fill="#000000"/>
</svg>
