<svg id="Telegram" xmlns="http://www.w3.org/2000/svg" width="24" height="24" viewBox="0 0 24 24">
  <path id="Контур_984" data-name="Контур 984" d="M0,0H24V24H0Z" fill="none"/>
  <g id="telegram-1" transform="translate(2 2)">
    <path id="Контур_1033" data-name="Контур 1033" d="M10,20A10,10,0,1,0,0,10,10,10,0,0,0,10,20Z" fill="#34aadf"/>
    <path id="Контур_1034" data-name="Контур 1034" d="M87.277,149.333s4.022-1.651,5.417-2.232c.535-.232,2.348-.976,2.348-.976s.837-.325.767.465c-.023.325-.209,1.465-.4,2.7-.279,1.744-.581,3.65-.581,3.65s-.046.535-.442.628a1.912,1.912,0,0,1-1.162-.418c-.093-.07-1.744-1.116-2.348-1.627a.44.44,0,0,1,.023-.744c.837-.767,1.837-1.72,2.441-2.325.279-.279.558-.93-.6-.14-1.651,1.139-3.278,2.209-3.278,2.209a1.366,1.366,0,0,1-1.069.023c-.7-.209-1.511-.488-1.511-.488S86.324,149.7,87.277,149.333Z" transform="translate(-82.369 -139.213)" fill="#fff"/>
  </g>
</svg>
